<?xml version="1.0" standalone="no"?>
<!DOCTYPE svg PUBLIC "-//W3C//DTD SVG 20010904//EN"
 "http://www.w3.org/TR/2001/REC-SVG-20010904/DTD/svg10.dtd">
<svg version="1.0" xmlns="http://www.w3.org/2000/svg"
 width="512.000000pt" height="512.000000pt" viewBox="0 0 512.000000 512.000000"
 preserveAspectRatio="xMidYMid meet">

<g transform="translate(0.000000,512.000000) scale(0.100000,-0.100000)"
fill="#000000" stroke="none">
<path d="M2442 5044 c-23 -19 -67 -74 -98 -122 -241 -370 -1201 -1384 -1739
-1838 -114 -96 -263 -202 -376 -265 -147 -82 -214 -147 -224 -214 -17 -108 41
-183 229 -301 236 -147 437 -299 676 -508 150 -130 572 -554 726 -726 229
-258 524 -625 684 -849 74 -106 135 -167 175 -177 14 -4 49 -4 77 -2 47 5 56
10 102 60 28 30 91 110 141 179 436 604 1099 1282 1775 1816 107 85 249 191
315 236 156 106 202 152 210 210 9 58 -13 109 -62 142 -21 14 -85 54 -143 88
-401 239 -934 726 -1531 1397 -212 239 -512 605 -596 728 -55 80 -118 148
-155 168 -15 8 -53 14 -86 14 -53 0 -63 -4 -100 -36z m213 -637 c235 -99 628
-418 1065 -863 479 -488 723 -839 708 -1019 -14 -166 -222 -446 -663 -894
-436 -442 -876 -820 -1080 -926 -89 -47 -136 -47 -233 0 -394 188 -1393 1125
-1700 1593 -118 180 -127 241 -53 389 231 458 1433 1629 1791 1744 35 11 106
1 165 -24z"/>
<path d="M2430 4277 c-355 -202 -1196 -1014 -1527 -1475 -75 -104 -143 -230
-143 -265 0 -59 100 -215 261 -407 470 -561 1378 -1349 1554 -1350 28 0 135
64 236 141 219 165 459 379 757 673 524 518 771 838 749 972 -28 171 -333 562
-788 1009 -455 447 -848 745 -984 745 -29 0 -61 -12 -115 -43z m273 -763 c93
-218 166 -398 164 -400 -2 -2 -52 -7 -112 -11 l-108 -6 7 -236 c3 -130 9 -302
13 -383 l6 -148 -132 0 -132 0 7 148 c3 81 9 254 13 385 l6 237 -75 0 c-41 0
-81 4 -87 8 -10 6 21 110 118 405 71 218 133 397 137 397 4 0 83 -178 175
-396z m-629 -635 c117 -69 143 -89 115 -89 -21 0 -183 -73 -234 -105 -66 -42
-113 -91 -120 -127 -21 -94 142 -203 389 -261 77 -17 124 -21 306 -21 222 0
289 6 480 49 181 40 288 92 330 159 40 66 19 129 -66 197 -77 61 -104 70 -197
63 l-84 -7 -33 97 c-18 54 -30 99 -28 101 4 4 262 -66 433 -117 l70 -21 -32
-11 c-18 -6 -33 -14 -33 -19 0 -4 28 -29 62 -55 80 -61 108 -102 108 -160 0
-97 -85 -181 -275 -272 -215 -104 -461 -140 -817 -120 -371 21 -624 83 -843
205 -228 127 -255 277 -72 411 106 79 345 188 393 180 12 -1 78 -36 148 -77z
m610 -821 c3 -24 8 -133 11 -243 3 -110 8 -271 12 -357 l6 -158 -175 0 c-96 0
-177 2 -179 5 -6 5 48 763 55 782 4 10 38 13 135 13 l130 0 5 -42z"/>
</g>
</svg>
